<svg xmlns="http://www.w3.org/2000/svg" version="1.0" width="512.000000pt" height="512.000000pt" viewBox="0 0 512.000000 512.000000" preserveAspectRatio="xMidYMid meet">

<g transform="translate(0.000000,512.000000) scale(0.100000,-0.100000)" fill="#673ab7" stroke="none">
<path d="M1730 4724 c-110 -29 -214 -126 -256 -237 -16 -45 -19 -78 -19 -242 0 -174 2 -195 23 -247 45 -110 127 -189 237 -225 43 -15 115 -17 523 -21 l473 -3 -4 -1087 c-4 -1156 -4 -1165 -52 -1266 -21 -44 -51 -56 -140 -56 -64 0 -77 3 -104 25 -56 48 -81 153 -101 420 -17 223 -59 323 -166 394 -91 60 -131 66 -409 66 -238 -1 -253 -2 -310 -24 -90 -35 -157 -108 -187 -203 -20 -65 -23 -92 -22 -243 4 -961 579 -1479 1535 -1385 754 75 1089 501 1149 1460 8 116 10 585 8 1385 l-3 1210 -24 60 c-33 82 -124 173 -206 206 l-60 24 -915 2 c-777 2 -923 0 -970 -13z" fill="#673ab7"/>
</g>
</svg>